<?xml version="1.0" encoding="UTF-8"?>
<svg width="58px" height="48px" viewBox="0 0 58 48" version="1.1" xmlns="http://www.w3.org/2000/svg" xmlns:xlink="http://www.w3.org/1999/xlink">
    <!-- Generator: Sketch 45.2 (43514) - http://www.bohemiancoding.com/sketch -->
    <title>logo-fin</title>
    <desc>Created with Sketch.</desc>
    <defs></defs>
    <g id="choix" stroke="none" stroke-width="1" fill="none" fill-rule="evenodd">
        <g id="HOME" transform="translate(-130.000000, -62.000000)" fill-rule="nonzero" fill="#4D45E9">
            <g id="Group-2" transform="translate(130.000000, 62.000000)">
                <g id="logo-fin">
                    <path d="M31.9956044,31.616 C31.9956044,40.512 25.621978,47.68 16.7626374,47.68 C12.2373626,47.68 8.85934066,45.696 6.56483516,42.688 L6.24615385,46.272 C6.18241758,46.848 5.86373626,47.232 5.29010989,47.232 L1.14725275,47.232 C0.573626374,47.232 0.191208791,46.848 0.191208791,46.272 L0.191208791,1.472 C0.191208791,0.896 0.573626374,0.512 1.14725275,0.512 L5.92747253,0.512 C6.5010989,0.512 6.88351648,0.896 6.88351648,1.472 L6.88351648,20.032 C9.17802198,17.152 12.4923077,15.232 16.7626374,15.232 C25.621978,15.232 31.9956044,22.464 31.9956044,31.616 Z M25.5582418,31.552 C25.5582418,25.664 21.5428571,21.312 16.1252747,21.312 C10.5802198,21.312 6.69230769,25.92 6.69230769,31.552 C6.69230769,37.184 10.5802198,41.536 16.1252747,41.536 C21.5428571,41.536 25.5582418,37.248 25.5582418,31.552 Z" id="Shape"></path>
                    <path d="M57.6175824,16.832 L57.6175824,46.272 C57.6175824,46.848 57.2351648,47.232 56.6615385,47.232 L52.5186813,47.232 C51.9450549,47.232 51.6263736,46.848 51.5626374,46.272 L51.243956,42.688 C48.9494505,45.696 45.5714286,47.68 41.0461538,47.68 C32.1868132,47.68 25.8131868,40.512 25.8131868,31.616 C25.8131868,22.464 32.1868132,15.232 41.0461538,15.232 C45.5714286,15.232 49.0131868,17.344 51.3076923,20.48 L51.5626374,16.832 C51.6263736,16.256 51.9450549,15.872 52.5186813,15.872 L56.6615385,15.872 C57.2351648,15.872 57.6175824,16.256 57.6175824,16.832 Z M51.1164835,31.552 C51.1164835,25.92 47.2285714,21.312 41.6835165,21.312 C36.2659341,21.312 32.2505495,25.664 32.2505495,31.552 C32.2505495,37.248 36.2659341,41.536 41.6835165,41.536 C47.2285714,41.536 51.1164835,37.184 51.1164835,31.552 Z" id="Shape"></path>
                </g>
            </g>
        </g>
    </g>
</svg>