<?xml version="1.0" encoding="UTF-8"?>
<svg width="122px" height="100px" viewBox="0 0 122 100" version="1.1" xmlns="http://www.w3.org/2000/svg" xmlns:xlink="http://www.w3.org/1999/xlink">
    <!-- Generator: Sketch 45.2 (43514) - http://www.bohemiancoding.com/sketch -->
    <title>logo-fin</title>
    <desc>Created with Sketch.</desc>
    <defs></defs>
    <g id="choix" stroke="none" stroke-width="1" fill="none" fill-rule="evenodd">
        <g id="load" transform="translate(-659.000000, -463.000000)" fill-rule="nonzero" fill="#FFFFFF">
            <g id="logo-fin" transform="translate(659.000000, 463.000000)">
                <path d="M67.3010989,65.5253333 C67.3010989,84.244 53.8945055,99.3266667 35.2593407,99.3266667 C25.7406593,99.3266667 18.6351648,95.152 13.8087912,88.8226667 L13.1384615,96.364 C13.0043956,97.576 12.3340659,98.384 11.1274725,98.384 L2.41318681,98.384 C1.20659341,98.384 0.402197802,97.576 0.402197802,96.364 L0.402197802,2.09733333 C0.402197802,0.885333333 1.20659341,0.0773333333 2.41318681,0.0773333333 L12.4681319,0.0773333333 C13.6747253,0.0773333333 14.4791209,0.885333333 14.4791209,2.09733333 L14.4791209,41.1506667 C19.3054945,35.0906667 26.2769231,31.0506667 35.2593407,31.0506667 C53.8945055,31.0506667 67.3010989,46.268 67.3010989,65.5253333 Z M53.7604396,65.3906667 C53.7604396,53.0013333 45.3142857,43.844 33.9186813,43.844 C22.2549451,43.844 14.0769231,53.54 14.0769231,65.3906667 C14.0769231,77.2413333 22.2549451,86.3986667 33.9186813,86.3986667 C45.3142857,86.3986667 53.7604396,77.376 53.7604396,65.3906667 Z" id="Shape"></path>
                <path d="M121.195604,34.4173333 L121.195604,96.364 C121.195604,97.576 120.391209,98.384 119.184615,98.384 L110.47033,98.384 C109.263736,98.384 108.593407,97.576 108.459341,96.364 L107.789011,88.8226667 C102.962637,95.152 95.8571429,99.3266667 86.3384615,99.3266667 C67.7032967,99.3266667 54.2967033,84.244 54.2967033,65.5253333 C54.2967033,46.268 67.7032967,31.0506667 86.3384615,31.0506667 C95.8571429,31.0506667 103.096703,35.4946667 107.923077,42.0933333 L108.459341,34.4173333 C108.593407,33.2053333 109.263736,32.3973333 110.47033,32.3973333 L119.184615,32.3973333 C120.391209,32.3973333 121.195604,33.2053333 121.195604,34.4173333 Z M107.520879,65.3906667 C107.520879,53.54 99.3428571,43.844 87.6791209,43.844 C76.2835165,43.844 67.8373626,53.0013333 67.8373626,65.3906667 C67.8373626,77.376 76.2835165,86.3986667 87.6791209,86.3986667 C99.3428571,86.3986667 107.520879,77.2413333 107.520879,65.3906667 Z" id="Shape"></path>
            </g>
        </g>
    </g>
</svg>